<svg width="70" height="76" viewBox="0 0 70 76" fill="" xmlns="http://www.w3.org/2000/svg">
<path d="M54.1265 11.2761C54.8242 10.6182 55.4192 10.0362 56.0293 9.47063C58.8373 6.86792 62.3911 7.22237 63.9189 10.7284C65.3419 13.9938 66.2928 17.5471 66.8991 21.0687C68.1404 28.2782 68.0589 35.4889 65.6188 42.5217C62.81 50.6171 57.4613 56.7511 50.6849 61.741C46.2516 65.0055 41.7315 68.1532 37.208 71.2923C36.8105 71.5681 35.9206 71.6415 35.559 71.3856C30.282 67.6512 24.918 64.0198 19.8454 60.0205C7.50475 50.2909 3.22378 37.3724 5.54682 22.0883C6.06104 18.7051 6.87122 15.3369 7.88971 12.0691C8.80622 9.12859 10.9349 7.61268 13.3607 7.90951C14.4435 8.042 15.5498 8.69716 16.4623 9.36516C18.7538 11.0425 20.841 13.0126 23.1988 14.5817C25.4403 16.0735 26.8372 15.785 28.702 13.8685C29.8998 12.6375 30.9552 11.2687 32.0904 9.97566C34.6623 7.04584 37.8986 7.0288 40.4874 9.94333C41.588 11.1825 42.5825 12.5214 43.7364 13.7067C45.7975 15.8239 47.1938 16.0291 49.7165 14.4932C51.2296 13.5719 52.5975 12.4122 54.1265 11.2761ZM10.9053 40.6783C12.4663 45.306 14.728 49.6345 18.4151 52.802C24.1069 57.6916 30.157 62.1642 35.9892 66.7617C40.8043 63.355 45.3081 60.371 49.5875 57.0941C56.2463 51.9951 60.9511 45.5247 62.6519 37.1313C64.2011 29.4857 63.2039 22.011 61.109 14.6228C60.8528 13.7191 60.2434 12.9155 59.7659 12.0048C58.2163 13.3649 56.9732 14.565 55.6154 15.617C54.2593 16.6675 52.853 17.687 51.3549 18.5139C47.6387 20.5649 44.7543 20.2813 41.5598 17.469C40.1506 16.2284 38.9946 14.6971 37.7467 13.2774C36.4481 11.8 36.1319 11.8011 34.8825 13.3063C33.8969 14.4936 32.9541 15.7285 31.8677 16.8179C28.4605 20.2342 25.1239 20.6878 20.9399 18.2828C19.5561 17.4875 18.2551 16.5263 16.9997 15.5353C15.6254 14.4504 14.3477 13.2433 12.6089 11.7231C9.07737 21.3744 8.06504 30.7538 10.9053 40.6783Z" fill="black"/>
<path d="M16.5664 43.3959C13.3903 37.3046 12.9636 30.926 13.7194 24.3857C13.9161 22.6839 14.2641 20.9997 14.5949 18.9898C22.1445 25.2055 29.4021 26.3009 36.1993 18.3103C43.2139 25.6478 49.185 25.7768 57.9111 19.3749C61.4142 33.1018 58.3772 45.3511 46.91 53.9214C43.4914 56.4764 39.9817 58.9095 36.4041 61.4771C29.5308 56.6821 22.1749 52.5734 17.6014 45.2093C17.2579 44.6561 16.9571 44.0763 16.5664 43.3959ZM40.2484 27.8646C39.018 27.1978 37.7877 26.5311 36.4996 25.833C36.4996 35.4733 36.4996 45.0459 36.4996 54.6746C48.2256 47.8423 54.895 39.8401 53.6567 27.7617C49.2896 29.4997 44.9064 29.8309 40.2484 27.8646Z" fill="black"/>
</svg>